<svg width="280" height="96" viewBox="0 0 280 96" fill="none" xmlns="http://www.w3.org/2000/svg">
<path opacity="0.8" d="M190.004 -85.3278C212.84 -63.1429 225.669 -33.3943 226.129 -1.55941C226.589 30.2754 214.626 60.3825 192.441 83.2184C170.257 106.054 140.508 118.883 108.673 119.343C76.8382 119.803 46.7311 107.84 23.8953 85.6553L12.146 97.7493C38.2098 123.07 72.5778 136.731 108.917 136.206C145.256 135.681 179.215 121.037 204.535 94.9676C229.856 68.9038 243.518 34.5358 242.992 -1.80323C242.467 -38.1423 227.823 -72.101 201.754 -97.4218L190.004 -85.3278Z" fill="#752549"/>
<path d="M9.3642 -94.6401C-15.9566 -68.5763 -29.6179 -34.2083 -29.0925 2.13072C-28.5671 38.4698 -13.9231 72.4285 12.1459 97.7493L23.8951 85.6553C1.05927 63.4704 -11.7692 33.7218 -12.2295 1.8869C-12.6898 -29.948 -0.726749 -60.055 21.4582 -82.8909C43.6431 -105.727 73.3917 -118.555 105.227 -119.015C137.061 -119.476 167.168 -107.513 190.004 -85.3279L201.754 -97.4218C175.69 -122.743 141.322 -136.404 104.983 -135.879C68.6437 -135.353 34.685 -120.709 9.3642 -94.6401Z" fill="#6F2A49"/>
<path opacity="0.8" d="M193.304 -1.08484C193.992 46.5331 155.811 85.8293 108.198 86.5177C84.3919 86.8619 62.6634 77.4914 46.7964 62.0766L35.0524 74.1653C54.0137 92.5861 79.984 103.787 108.437 103.376C165.348 102.553 210.979 55.5823 210.156 -1.32851C209.745 -29.7865 197.798 -55.4221 178.836 -73.8377L167.092 -61.749C182.954 -46.3395 192.954 -24.8911 193.298 -1.07948L193.304 -1.08484Z" fill="#752549"/>
<path d="M105.457 -103.048C48.5466 -102.225 2.91515 -55.2548 3.73801 1.65605C4.14947 30.1141 16.0965 55.7497 35.0577 74.1652L46.8018 62.0766C30.9401 46.6671 20.94 25.2186 20.5957 1.40703C19.9072 -46.2109 58.0884 -85.5071 105.701 -86.1955C129.507 -86.5397 151.236 -77.1692 167.103 -61.7545L178.847 -73.8431C159.886 -92.2639 133.915 -103.465 105.463 -103.053L105.457 -103.048Z" fill="#6F2A49"/>
<path opacity="0.8" d="M161.253 -0.621415C161.686 29.3222 137.679 54.0339 107.735 54.4669C92.7631 54.6833 79.0993 48.7897 69.1269 39.0964L57.3829 51.1851C70.4548 63.8844 88.3605 71.6083 107.979 71.3246C147.215 70.7573 178.678 38.3713 178.111 -0.865157C177.827 -20.4834 169.589 -38.1582 156.517 -50.8576L144.773 -38.7689C154.745 -29.0756 161.036 -15.5932 161.253 -0.621415Z" fill="#752549"/>
<path d="M105.921 -70.9972C66.6844 -70.4299 35.2216 -38.0438 35.7889 1.19263C36.0726 20.8109 44.3109 38.4857 57.3829 51.185L69.1269 39.0964C59.1545 29.4031 52.8632 15.9207 52.6467 0.948886C52.2138 -28.9947 76.221 -53.7064 106.165 -54.1394C121.136 -54.3559 134.8 -48.4623 144.773 -38.7742L156.517 -50.8629C143.445 -63.5622 125.539 -71.2861 105.921 -71.0024L105.921 -70.9972Z" fill="#6F2A49"/>
<path opacity="0.8" d="M131.183 -0.186634C131.376 13.1732 120.66 24.2036 107.3 24.3968C100.62 24.4934 94.5226 21.8627 90.0708 17.5378L78.3268 29.6265C85.8728 36.9574 96.2122 41.4184 107.544 41.2546C130.202 40.927 148.368 22.2275 148.04 -0.430376C147.877 -11.7567 143.119 -21.9628 135.573 -29.299L123.828 -17.2103C128.28 -12.8855 131.086 -6.86653 131.183 -0.186634Z" fill="#752549"/>
<path d="M65.8589 0.757868C66.0227 12.0842 70.7807 22.2902 78.3268 29.6265L90.0709 17.5378C85.6192 13.213 82.8132 7.19402 82.7167 0.514126C82.5235 -12.8457 93.2396 -23.8761 106.599 -24.0693C113.279 -24.1659 119.377 -21.5352 123.829 -17.2103L135.573 -29.299C128.027 -36.6299 117.687 -41.0909 106.356 -40.9271C83.6977 -40.5995 65.5313 -21.9 65.8589 0.757868Z" fill="#6F2A49"/>
</svg>
