<svg width="335" height="112" viewBox="0 0 335 112" fill="none" xmlns="http://www.w3.org/2000/svg">
<path d="M0 8C0 3.58172 3.58172 0 8 0H327C331.418 0 335 3.58172 335 8V112H0V8Z" fill="#EFF3FF"/>
<g opacity="0.4">
<mask id="mask0_3084_41681" style="mask-type:alpha" maskUnits="userSpaceOnUse" x="0" y="0" width="335" height="112">
<path d="M0 8C0 3.58172 3.58172 0 8 0H327C331.418 0 335 3.58172 335 8V112H0V8Z" fill="white"/>
</mask>
<g mask="url(#mask0_3084_41681)">
<g opacity="0.5">
<path opacity="0.8" d="M327.785 188.785C305.272 211.297 275.341 223.694 243.503 223.694C211.665 223.694 181.734 211.297 159.221 188.785C136.708 166.272 124.311 136.341 124.311 104.503C124.311 72.6644 136.708 42.7335 159.221 20.2207L147.298 8.29785C121.603 33.9928 107.446 68.1598 107.446 104.503C107.446 140.845 121.598 175.012 147.298 200.707C172.993 226.402 207.16 240.559 243.503 240.559C279.846 240.559 314.013 226.408 339.708 200.707L327.785 188.785Z" fill="white"/>
<path d="M339.707 8.29778C314.012 -17.3972 279.845 -31.554 243.503 -31.554C207.16 -31.554 172.993 -17.4025 147.298 8.29778L159.221 20.2206C181.733 -2.29212 211.664 -14.6891 243.503 -14.6891C275.341 -14.6891 305.272 -2.29212 327.785 20.2206C350.297 42.7334 362.694 72.6643 362.694 104.503C362.694 136.341 350.297 166.272 327.785 188.784L339.707 200.707C365.402 175.012 379.559 140.845 379.559 104.503C379.559 68.1597 365.408 33.9928 339.707 8.29778Z" fill="#ADCAFF"/>
<path opacity="0.8" d="M243.503 190.866C195.88 190.866 157.14 152.12 157.14 104.503C157.14 80.6938 166.824 59.103 182.466 43.4606L170.548 31.543C151.855 50.236 140.28 76.0416 140.28 104.497C140.28 161.414 186.586 207.72 243.503 207.72C271.964 207.72 297.769 196.145 316.457 177.452L304.54 165.534C288.902 181.171 267.312 190.86 243.498 190.86L243.503 190.866Z" fill="white"/>
<path d="M346.725 104.503C346.725 47.5858 300.419 1.28003 243.502 1.28003C215.041 1.28003 189.236 12.8552 170.548 31.5482L182.465 43.4658C198.103 27.8285 219.693 18.1396 243.508 18.1396C291.13 18.1396 329.871 56.8849 329.871 104.503C329.871 128.311 320.187 149.902 304.544 165.545L316.462 177.462C335.155 158.769 346.73 132.964 346.73 104.508L346.725 104.503Z" fill="#ADCAFF"/>
<path opacity="0.8" d="M243.502 158.811C213.556 158.811 189.194 134.449 189.194 104.503C189.194 89.5291 195.284 75.9519 205.121 66.1207L193.203 54.2031C180.316 67.0901 172.334 84.8822 172.334 104.503C172.334 143.743 204.262 175.671 243.502 175.671C263.123 175.671 280.915 167.689 293.802 154.802L281.884 142.884C272.048 152.716 258.476 158.811 243.502 158.811Z" fill="white"/>
<path d="M314.671 104.503C314.671 65.262 282.743 33.3342 243.503 33.3342C223.882 33.3342 206.09 41.3162 193.203 54.2032L205.121 66.1208C214.957 56.2896 228.529 50.1938 243.503 50.1938C273.449 50.1938 297.811 74.5558 297.811 104.503C297.811 119.476 291.721 133.053 281.89 142.884L293.807 154.802C306.694 141.915 314.676 124.123 314.676 104.503H314.671Z" fill="#ADCAFF"/>
<path opacity="0.8" d="M243.502 128.738C230.141 128.738 219.267 117.864 219.267 104.503C219.267 97.822 221.985 91.7631 226.374 87.3744L214.457 75.4568C207.017 82.8961 202.407 93.1698 202.407 104.503C202.407 127.163 220.842 145.598 243.502 145.598C254.83 145.598 265.104 140.988 272.548 133.548L260.631 121.631C256.242 126.02 250.183 128.738 243.502 128.738Z" fill="white"/>
<path d="M243.503 63.4075C232.175 63.4075 221.902 68.0175 214.457 75.4568L226.375 87.3744C230.763 82.9856 236.822 80.267 243.503 80.267C256.864 80.267 267.738 91.1414 267.738 104.503C267.738 111.183 265.02 117.242 260.631 121.631L272.549 133.548C279.988 126.109 284.598 115.835 284.598 104.503C284.598 81.8423 266.163 63.4075 243.503 63.4075Z" fill="#ADCAFF"/>
</g>
</g>
</g>
</svg>
