<svg width="430" height="112" viewBox="0 0 430 112" fill="none" xmlns="http://www.w3.org/2000/svg">
<path d="M0 8C0 3.58172 3.58172 0 8 0H422C426.418 0 430 3.58172 430 8V112H0V8Z" fill="#F1FFE2"/>
<g opacity="0.4">
<mask id="mask0_3265_43114" style="mask-type:alpha" maskUnits="userSpaceOnUse" x="95" y="0" width="335" height="112">
<path d="M95 8C95 3.58172 98.5817 0 103 0H422C426.418 0 430 3.58172 430 8V112H95V8Z" fill="white"/>
</mask>
<g mask="url(#mask0_3265_43114)">
<g opacity="0.5">
<path opacity="0.8" d="M422.785 188.785C400.272 211.297 370.341 223.694 338.503 223.694C306.665 223.694 276.734 211.297 254.221 188.785C231.708 166.272 219.311 136.341 219.311 104.503C219.311 72.6644 231.708 42.7335 254.221 20.2207L242.298 8.29785C216.603 33.9928 202.446 68.1598 202.446 104.503C202.446 140.845 216.598 175.012 242.298 200.707C267.993 226.402 302.16 240.559 338.503 240.559C374.846 240.559 409.013 226.408 434.708 200.707L422.785 188.785Z" fill="white"/>
<path d="M434.707 8.29778C409.012 -17.3972 374.845 -31.554 338.503 -31.554C302.16 -31.554 267.993 -17.4025 242.298 8.29778L254.221 20.2206C276.733 -2.29212 306.664 -14.6891 338.503 -14.6891C370.341 -14.6891 400.272 -2.29212 422.785 20.2206C445.297 42.7334 457.694 72.6643 457.694 104.503C457.694 136.341 445.297 166.272 422.785 188.784L434.707 200.707C460.402 175.012 474.559 140.845 474.559 104.503C474.559 68.1597 460.408 33.9928 434.707 8.29778Z" fill="#C5F986"/>
<path opacity="0.8" d="M338.503 190.866C290.88 190.866 252.14 152.12 252.14 104.503C252.14 80.6938 261.824 59.103 277.466 43.4606L265.548 31.543C246.855 50.236 235.28 76.0416 235.28 104.497C235.28 161.414 281.586 207.72 338.503 207.72C366.964 207.72 392.769 196.145 411.457 177.452L399.54 165.534C383.902 181.171 362.312 190.86 338.498 190.86L338.503 190.866Z" fill="white"/>
<path d="M441.725 104.503C441.725 47.5858 395.419 1.28003 338.503 1.28003C310.042 1.28003 284.236 12.8552 265.548 31.5482L277.466 43.4658C293.103 27.8285 314.694 18.1396 338.508 18.1396C386.131 18.1396 424.871 56.8849 424.871 104.503C424.871 128.311 415.187 149.902 399.545 165.545L411.462 177.462C430.155 158.769 441.731 132.964 441.731 104.508L441.725 104.503Z" fill="#C5F986"/>
<path opacity="0.8" d="M338.503 158.811C308.556 158.811 284.194 134.449 284.194 104.503C284.194 89.5291 290.285 75.9519 300.121 66.1207L288.203 54.2031C275.316 67.0901 267.334 84.8822 267.334 104.503C267.334 143.743 299.262 175.671 338.503 175.671C358.123 175.671 375.915 167.689 388.802 154.802L376.885 142.884C367.048 152.716 353.476 158.811 338.503 158.811Z" fill="white"/>
<path d="M409.671 104.503C409.671 65.262 377.743 33.3342 338.503 33.3342C318.882 33.3342 301.09 41.3162 288.203 54.2032L300.121 66.1208C309.957 56.2896 323.529 50.1938 338.503 50.1938C368.449 50.1938 392.811 74.5558 392.811 104.503C392.811 119.476 386.721 133.053 376.89 142.884L388.807 154.802C401.694 141.915 409.676 124.123 409.676 104.503H409.671Z" fill="#C5F986"/>
<path opacity="0.8" d="M338.503 128.738C325.142 128.738 314.267 117.864 314.267 104.503C314.267 97.822 316.986 91.7631 321.375 87.3744L309.457 75.4568C302.018 82.8961 297.408 93.1698 297.408 104.503C297.408 127.163 315.843 145.598 338.503 145.598C349.83 145.598 360.104 140.988 367.549 133.548L355.631 121.631C351.242 126.02 345.183 128.738 338.503 128.738Z" fill="white"/>
<path d="M338.503 63.4075C327.175 63.4075 316.902 68.0175 309.457 75.4568L321.375 87.3744C325.763 82.9856 331.822 80.267 338.503 80.267C351.864 80.267 362.738 91.1414 362.738 104.503C362.738 111.183 360.02 117.242 355.631 121.631L367.549 133.548C374.988 126.109 379.598 115.835 379.598 104.503C379.598 81.8423 361.163 63.4075 338.503 63.4075Z" fill="#C5F986"/>
</g>
</g>
</g>
</svg>
